<svg xmlns="http://www.w3.org/2000/svg" width="109" height="38" fill="none" viewBox="0 0 109 38"><path fill="#000" fill-opacity=".5" d="M89.814 0a18.7 18.7 0 0 0-11.838 4.203A18.7 18.7 0 0 0 66.138 0 18.7 18.7 0 0 0 54.3 4.203 18.7 18.7 0 0 0 42.463 0a18.7 18.7 0 0 0-11.837 4.203A18.7 18.7 0 0 0 18.788 0C8.412 0 0 8.417 0 18.8s8.412 18.8 18.788 18.8a18.7 18.7 0 0 0 11.838-4.204 18.7 18.7 0 0 0 11.837 4.205c4.489 0 8.607-1.578 11.837-4.205a18.7 18.7 0 0 0 11.838 4.205c4.488 0 8.606-1.578 11.838-4.205a18.7 18.7 0 0 0 11.838 4.205c10.377 0 18.789-8.418 18.789-18.8C108.603 8.417 100.191 0 89.813 0M77.976 27.43a14.6 14.6 0 0 1-2.81-8.63c0-3.227 1.044-6.208 2.81-8.63a14.6 14.6 0 0 1 2.81 8.63c0 3.226-1.044 6.209-2.81 8.63m-23.675-.002a14.6 14.6 0 0 1-2.81-8.628c0-3.227 1.044-6.208 2.81-8.628A14.6 14.6 0 0 1 57.11 18.8a14.6 14.6 0 0 1-2.81 8.628m-23.676.001a14.6 14.6 0 0 1-2.81-8.628 14.6 14.6 0 0 1 2.81-8.63 14.6 14.6 0 0 1 2.81 8.63c0 3.225-1.043 6.208-2.81 8.628M4.14 18.801c0-8.096 6.559-14.659 14.648-14.659 3.355 0 6.447 1.132 8.916 3.031a18.72 18.72 0 0 0-4.028 11.628c0 4.39 1.507 8.426 4.028 11.625a14.58 14.58 0 0 1-8.916 3.031c-8.09 0-14.648-6.563-14.648-14.657m29.407 11.625A18.72 18.72 0 0 0 37.575 18.8a18.72 18.72 0 0 0-4.028-11.628 14.58 14.58 0 0 1 8.916-3.03 14.57 14.57 0 0 1 8.915 3.03A18.73 18.73 0 0 0 47.35 18.8a18.73 18.73 0 0 0 4.028 11.625 14.58 14.58 0 0 1-8.915 3.031 14.58 14.58 0 0 1-8.916-3.031m23.676 0A18.72 18.72 0 0 0 61.251 18.8c0-4.392-1.507-8.427-4.028-11.628a14.58 14.58 0 0 1 8.915-3.03c3.356 0 6.447 1.131 8.916 3.03A18.73 18.73 0 0 0 71.026 18.8c0 4.39 1.508 8.426 4.028 11.625a14.58 14.58 0 0 1-8.916 3.031 14.58 14.58 0 0 1-8.915-3.031m32.59 3.031a14.57 14.57 0 0 1-8.915-3.031A18.72 18.72 0 0 0 84.927 18.8c0-4.392-1.508-8.427-4.029-11.628a14.57 14.57 0 0 1 8.916-3.03c8.09 0 14.647 6.562 14.647 14.657s-6.557 14.657-14.647 14.657"/></svg>