<svg xmlns="http://www.w3.org/2000/svg" width="134" height="26" fill="none" viewBox="0 0 134 26"><path fill="#000" fill-opacity=".5" d="M37.977 3.814C35.941.726 32.447.123 30.084.068 28.004.02 18.989.011 13.738.008 3.4 0 9.312.003 0 .003v4.965c11.057 0 24.18-.026 29.925.063 1.026.015 2.042.119 2.849.838a2.44 2.44 0 0 1 .681 2.642c-.541 1.48-2.04 1.849-3.53 1.871-2.277.036-8.534.05-13.203.055-11.449.015-6.49.008-16.722.008v4.95c11.05 0 24.202-.022 29.925.062 1.786.026 3.672.65 3.672 2.65s-1.886 2.656-3.672 2.683c-5.71.084-18.868.061-29.925.061v4.961c11.091 0 25.606.04 30.084-.064 2.363-.055 5.857-.657 7.893-3.746 1.91-2.898 1.443-6.674-1.065-9.094 2.51-2.423 2.977-6.195 1.065-9.095m90.265-.825C124.867.554 121.203.21 118.231.14c-2.927-.069-7.342-.1-11.247-.116-9.52-.038-3.796-.021-12.866-.021v4.98c9.652 0 16.42-.08 23.872.13 2.189.062 4.537.294 6.65 1.769 2.002 1.397 3.19 3.623 3.19 6.026a7.31 7.31 0 0 1-3.157 6.03c-2.114 1.474-4.462 1.706-6.651 1.768-7.452.21-14.22.13-23.872.13l-.032 4.976c9.709 0 16.687.037 24.113-.137 2.972-.07 6.636-.413 10.011-2.847 3.201-2.308 5.14-5.934 5.14-9.92 0-3.987-1.939-7.613-5.14-9.921M54.226 11.15c-2.585-.05-3.408-.899-3.427-3.489-.017-2.391-.006-5.228-.006-7.657h-5.701c0 2.456-.047 7.429.049 9.83.186 4.67 1.712 6.124 6.456 6.287 3.29.112 5.904.073 10.454.07V11.19c-3.645.001-5.131.01-7.825-.04m28.26-3.398c-.018 2.52-.834 3.347-3.426 3.398-1.237.024-4.486.036-7.16.041v.004h-.024c-2.732-.002-5.646-.005-7.355-.005v14.623h6.703v-9.622h.676v.007c3.487-.003 7.844-.017 9.49-.068 5.036-.154 6.572-1.582 6.755-6.296.025-.63.04-1.427.05-2.301V.003h-5.702c0 2.492.011 5.288-.007 7.749"/></svg>