<svg xmlns="http://www.w3.org/2000/svg" width="94" height="50" fill="none" viewBox="0 0 94 50"><path fill="#000" fill-opacity=".5" d="M59.148 17.334c-.38 1.094-.686 1.73-1.12 2.196-.347.366-.81.528-1.871.527l-1.02.001L57.16 14.2h1.222c.832.001 1.29.278 1.302.924.006.415-.105.983-.536 2.21m-.313-5.783H54.36l-.094.288.196.19c.205.205.197.443.018.961l-3.337 9.734h4.923c2.112-.001 3.314-.467 4.293-1.516 1.226-1.296 2.347-4.67 2.31-6.527-.036-1.894-1.26-3.13-3.834-3.13M42.107 30.924c-.383 1.1-.685 1.805-1.128 2.272-.35.366-.811.63-1.873.63-.832 0-1.295-.341-1.294-.984-.006-.416.106-1.046.552-2.274.384-1.098.685-1.805 1.13-2.272.345-.364.808-.628 1.869-.628.832 0 1.295.34 1.294.981.008.42-.105 1.05-.55 2.274m-.179-5.921h-.353c-2.107 0-3.31.567-4.299 1.615-1.227 1.299-2.381 4.81-2.359 6.667.023 1.893 1.25 3.206 3.824 3.206h.378c2.111 0 3.315-.567 4.301-1.615 1.228-1.302 2.358-4.81 2.336-6.667-.025-1.893-1.25-3.206-3.828-3.206m-7.884-6.988 1.904-3.375.101.001.054 3.374zm4.448-6.462-4.407-.001-.098.288.142.141c.233.23.137.556-.721 1.918L28.14 22.72h3.243l1.407-2.47h3.359l.033 2.47 2.944-.001zM31.59 29.195c-.192.479-.405.593-.682.706-.187.073-.58.1-.96.1L28.475 30l.8-2.308h1.78c.532 0 .751.276.757.593.003.201-.09.567-.222.91m2.784-2.931c-.429-.644-1.336-1.124-3.049-1.124h-4.826l-.098.29.195.19c.207.205.198.444.018.96l-3.371 9.733h3.081l1.318-3.863h1.043l1.16 3.863h3.096l-1.457-3.952c.846-.138 1.271-.38 1.694-.757.58-.53.984-1.276 1.318-2.372.485-1.593.191-2.502-.122-2.968m38.296 2.931c-.192.479-.406.593-.678.706-.191.073-.58.1-.96.1h-1.47l.794-2.309h1.782c.53 0 .749.276.754.593.005.201-.09.567-.221.91m2.787-2.931c-.43-.644-1.337-1.124-3.055-1.123l-4.825-.001-.095.29.194.19c.208.205.197.444.021.96l-3.375 9.733h3.084l1.317-3.863h1.043l1.16 3.863h3.094l-1.453-3.952c.844-.138 1.266-.38 1.69-.757.582-.529.987-1.275 1.318-2.371.489-1.594.194-2.503-.118-2.97m-11.505-6.059 5.853-1.987h-5.153l.968-2.659h7.437l-1.032 2.825-8.434 2.773zM43.13 12.03l-.193-.191.095-.287h3.952l1.166 6.073 2.044-6.073 2.931-.005-3.823 11.172h-2.806l-1.43-7.228-2.445 7.228h-2.803l3.332-9.729c.177-.518.187-.756-.02-.96m-20.092-.002-.191-.19.095-.286 3.825-.001-2.93 8.506 4.435.001-.922 2.664h-7.627l3.335-9.732c.18-.517.188-.757-.02-.962m-.494 17.49-.968 2.66h-7.438l1.03-2.826 8.434-2.772-.361.956-5.853 1.982zm24.958 6.795-.464-9.746c-.035-.556-.114-.759-.398-.959l-.295-.178.135-.29h3.422l.206 8.032h.086l4.09-8.032h3.184l-6.153 11.173zm16.013-2.601-.907 2.597H55.1l3.346-9.7c.18-.519.187-.756-.02-.96l-.191-.188.111-.328h8.035l-.936 2.578-4.256.001-.608 1.784h3.928l-.855 2.336h-3.876l-.646 1.88z"/><path fill="#000" fill-opacity=".5" d="M91.357 24.709c0-5.745-4.487-11.219-12.625-15.425C70.265 4.907 58.967 2.5 46.925 2.5S23.593 4.907 15.126 9.284C6.99 13.49 2.493 18.964 2.493 24.709c0 5.735 4.496 11.218 12.633 15.424 8.467 4.377 19.757 6.784 31.8 6.784 12.04 0 23.339-2.407 31.806-6.784 8.138-4.206 12.625-9.689 12.625-15.425M79.873 7.062c5.222 2.703 13.985 8.583 13.985 17.647s-8.763 14.943-13.985 17.646c-8.814 4.545-20.51 7.054-32.948 7.054-12.43 0-24.134-2.509-32.948-7.054C8.763 39.652 0 33.773 0 24.709S8.763 9.765 13.977 7.062C22.799 2.51 34.495 0 46.925 0S71.06 2.509 79.873 7.062"/><path fill="#000" fill-opacity=".5" d="M88.77 24.709c0-6.057-6.404-10.644-11.229-13.136-9.11-4.705-20.433-6.487-30.616-6.487-10.174 0-21.506 1.79-30.616 6.487-4.825 2.492-11.23 7.079-11.23 13.136 0 6.048 6.414 10.643 11.23 13.135 9.11 4.697 20.442 6.488 30.616 6.488 10.183 0 21.506-1.79 30.616-6.488 4.825-2.492 11.23-7.087 11.23-13.135M78.015 10.66c5.206 2.677 11.797 7.518 11.797 14.048 0 6.52-6.6 11.361-11.797 14.047-9.245 4.782-20.763 6.607-31.089 6.607-10.318 0-21.835-1.834-31.089-6.607C10.64 36.07 4.048 31.23 4.048 24.71c0-6.53 6.59-11.37 11.788-14.048C25.09 5.879 36.6 4.046 46.926 4.046c10.325 0 21.843 1.833 31.088 6.615"/></svg>