<svg xmlns="http://www.w3.org/2000/svg" width="125" height="16" fill="none" viewBox="0 0 125 16"><path fill="#000" fill-opacity=".5" d="M118.522 6.168h-13.499c-.16-3.393 3.493-3.257 3.493-3.257h14.554V0h-14.79c-10.13.933-9.779 9.082-9.779 9.082h17.228c2.563 0 2.328 1.627 2.328 1.627 0 2.089-1.867 1.88-1.867 1.88H96.638V0h-5.59v12.59H80.813c-3.577-.014-3.577-1.88-3.577-1.88V0h-8.54l-8.85 5.35L51.934 0H32.368C22.277.617 21.552 8.152 21.552 8.152h3.6c-1.623.687-3.6 4.438-3.6 4.438H9.326c-3.733.1-3.615-3.282-3.615-3.282V0H.001v8.152c-.107 7.91 7.459 7.213 7.459 7.213h42.383l8.141-4.885 6.873 4.885h8.5L62.33 6.983l9.037-5.353v9.08c.937 4.183 6.64 4.655 6.64 4.655h41.45c5.117 0 5.117-4.656 5.117-4.656 0-4.36-6.053-4.54-6.053-4.54m-69.7 6.422H28.334c.46-3.418 3.882-3.431 3.882-3.431h12.187V6.05h-16.07c.781-3.275 4.036-2.949 4.036-2.949H45.88V1.863l9.46 6.515z"/></svg>