<svg xmlns="http://www.w3.org/2000/svg" width="75" height="48" fill="none" viewBox="0 0 75 48"><path fill="#000" fill-opacity=".5" d="m37.297 37.245-.109-.003c2.931-.147 5.31-6.162 5.418-13.662a71 71 0 0 1-5.418.222 72 72 0 0 1-5.421-.222c.114 7.5 2.484 13.515 5.421 13.662l-.112.003zm-.221 10.358a60 60 0 0 1-3.344-.105C14.804 46.353 0 36.182 0 23.802 0 10.655 16.695 0 37.297 0s37.076 10.655 37.076 23.802c0 12.476-15.037 22.708-34.178 23.721q-1.434.077-2.898.08zm-3.052-3.252c-3.578-2.976-6.135-10.855-6.135-20.11 0-.33 0-.71.004-1.036-10.831-1.46-18.596-5.427-18.596-10.093q-.002-.281.038-.56c-2.417 3.046-3.8 6.667-3.8 10.366 0 11.176 12.48 20.372 28.485 21.488l.067.005zm3.164-40.825c4.326 0 7.93 6.167 8.698 14.317l-.086.02c7.508-1.187 12.746-3.88 12.746-7.01 0-4.228-9.558-7.656-21.35-7.657-11.806 0-21.37 3.426-21.37 7.657 0 3.13 5.232 5.818 12.723 7.009.77-8.153 4.308-14.336 8.639-14.336m.109 5.398c-2.364 0-4.378 3.801-5.172 9.15 1.668.154 5.172.328 5.172.328 1.8 0 3.506-.174 5.172-.327-.794-5.35-2.808-9.15-5.172-9.15m3.05 35.427c16.008-1.059 28.49-10.252 28.49-21.433 0-3.7-1.384-7.32-3.8-10.366.029.185.039.373.039.56 0 4.666-7.765 8.632-18.596 10.093.003.327.003.707.003 1.037 0 9.254-2.558 17.133-6.136 20.109"/></svg>